<svg xmlns="http://www.w3.org/2000/svg" width="1000" height="250" viewBox="0 0 1000 250" role="img" aria-label="87 contributions in the last year"><style>.beam{animation:sw 7s linear infinite}@keyframes sw{0%{transform:translateX(40px)}70%{transform:translateX(956.9000000000001px)}70.01%,100%{transform:translateX(1060px)}}</style><rect width="1000" height="250" rx="12" fill="#0b0f1a"/><rect x="1" y="1" width="998" height="248" rx="12" fill="none" stroke="#7c5cff" stroke-opacity="0.35"/><defs><linearGradient id="bg" x1="0" x2="1"><stop offset="0" stop-color="#7c5cff" stop-opacity="0"/><stop offset="1" stop-color="#22d3ee" stop-opacity=".2"/></linearGradient></defs><text x="40" y="44" font-family="'JetBrains Mono','Fira Code','Courier New',monospace" font-size="12" fill="#5b6480" letter-spacing="1.5">CONTRIBUTIONS · LAST 12 MONTHS</text><text x="40" y="84" font-family="'JetBrains Mono','Fira Code','Courier New',monospace" font-size="34" font-weight="700" fill="#e6e9f2">87</text><rect x="841" y="52" width="12" height="12" rx="2" fill="#151b2e"/><rect x="858" y="52" width="12" height="12" rx="2" fill="#2f2a6e"/><rect x="875" y="52" width="12" height="12" rx="2" fill="#4f3fb0"/><rect x="892" y="52" width="12" height="12" rx="2" fill="#7c5cff"/><rect x="909" y="52" width="12" height="12" rx="2" fill="#22d3ee"/><text x="833" y="62" text-anchor="end" font-family="'JetBrains Mono','Fira Code','Courier New',monospace" font-size="11" fill="#5b6480">LESS</text><text x="930" y="62" font-family="'JetBrains Mono','Fira Code','Courier New',monospace" font-size="11" fill="#5b6480">MORE</text><rect x="40.0" y="110.0" width="14" height="14" rx="2.5" fill="#151b2e"/><rect x="40.0" y="127.3" width="14" height="14" rx="2.5" fill="#151b2e"/><rect x="40.0" y="144.6" width="14" height="14" rx="2.5" fill="#151b2e"/><rect x="40.0" y="161.9" width="14" height="14" rx="2.5" fill="#151b2e"/><rect x="40.0" y="179.2" width="14" height="14" rx="2.5" fill="#151b2e"/><rect x="40.0" y="196.5" width="14" height="14" rx="2.5" fill="#151b2e"/><rect x="40.0" y="213.8" width="14" height="14" rx="2.5" fill="#151b2e"/><rect x="57.3" y="110.0" width="14" height="14" rx="2.5" fill="#151b2e"/><rect x="57.3" y="127.3" width="14" height="14" rx="2.5" fill="#151b2e"/><rect x="57.3" y="144.6" width="14" height="14" rx="2.5" fill="#151b2e"/><rect x="57.3" y="161.9" width="14" height="14" rx="2.5" fill="#151b2e"/><rect x="57.3" y="179.2" width="14" height="14" rx="2.5" fill="#151b2e"/><rect x="57.3" y="196.5" width="14" height="14" rx="2.5" fill="#151b2e"/><rect x="57.3" y="213.8" width="14" height="14" rx="2.5" fill="#151b2e"/><rect x="74.6" y="110.0" width="14" height="14" rx="2.5" fill="#151b2e"/><rect x="74.6" y="127.3" width="14" height="14" rx="2.5" fill="#151b2e"/><rect x="74.6" y="144.6" width="14" height="14" rx="2.5" fill="#151b2e"/><rect x="74.6" y="161.9" width="14" height="14" rx="2.5" fill="#151b2e"/><rect x="74.6" y="179.2" width="14" height="14" rx="2.5" fill="#151b2e"/><rect x="74.6" y="196.5" width="14" height="14" rx="2.5" fill="#151b2e"/><rect x="74.6" y="213.8" width="14" height="14" rx="2.5" fill="#151b2e"/><rect x="91.9" y="110.0" width="14" height="14" rx="2.5" fill="#151b2e"/><rect x="91.9" y="127.3" width="14" height="14" rx="2.5" fill="#151b2e"/><rect x="91.9" y="144.6" width="14" height="14" rx="2.5" fill="#151b2e"/><rect x="91.9" y="161.9" width="14" height="14" rx="2.5" fill="#151b2e"/><rect x="91.9" y="179.2" width="14" height="14" rx="2.5" fill="#151b2e"/><rect x="91.9" y="196.5" width="14" height="14" rx="2.5" fill="#151b2e"/><rect x="91.9" y="213.8" width="14" height="14" rx="2.5" fill="#151b2e"/><rect x="109.2" y="110.0" width="14" height="14" rx="2.5" fill="#151b2e"/><rect x="109.2" y="127.3" width="14" height="14" rx="2.5" fill="#151b2e"/><rect x="109.2" y="144.6" width="14" height="14" rx="2.5" fill="#151b2e"/><rect x="109.2" y="161.9" width="14" height="14" rx="2.5" fill="#151b2e"/><rect x="109.2" y="179.2" width="14" height="14" rx="2.5" fill="#151b2e"/><rect x="109.2" y="196.5" width="14" height="14" rx="2.5" fill="#151b2e"/><rect x="109.2" y="213.8" width="14" height="14" rx="2.5" fill="#151b2e"/><rect x="126.5" y="110.0" width="14" height="14" rx="2.5" fill="#151b2e"/><rect x="126.5" y="127.3" width="14" height="14" rx="2.5" fill="#151b2e"/><rect x="126.5" y="144.6" width="14" height="14" rx="2.5" fill="#151b2e"/><rect x="126.5" y="161.9" width="14" height="14" rx="2.5" fill="#151b2e"/><rect x="126.5" y="179.2" width="14" height="14" rx="2.5" fill="#151b2e"/><rect x="126.5" y="196.5" width="14" height="14" rx="2.5" fill="#151b2e"/><rect x="126.5" y="213.8" width="14" height="14" rx="2.5" fill="#151b2e"/><rect x="143.8" y="110.0" width="14" height="14" rx="2.5" fill="#151b2e"/><rect x="143.8" y="127.3" width="14" height="14" rx="2.5" fill="#151b2e"/><rect x="143.8" y="144.6" width="14" height="14" rx="2.5" fill="#151b2e"/><rect x="143.8" y="161.9" width="14" height="14" rx="2.5" fill="#151b2e"/><rect x="143.8" y="179.2" width="14" height="14" rx="2.5" fill="#151b2e"/><rect x="143.8" y="196.5" width="14" height="14" rx="2.5" fill="#151b2e"/><rect x="143.8" y="213.8" width="14" height="14" rx="2.5" fill="#151b2e"/><rect x="161.1" y="110.0" width="14" height="14" rx="2.5" fill="#151b2e"/><rect x="161.1" y="127.3" width="14" height="14" rx="2.5" fill="#151b2e"/><rect x="161.1" y="144.6" width="14" height="14" rx="2.5" fill="#151b2e"/><rect x="161.1" y="161.9" width="14" height="14" rx="2.5" fill="#151b2e"/><rect x="161.1" y="179.2" width="14" height="14" rx="2.5" fill="#151b2e"/><rect x="161.1" y="196.5" width="14" height="14" rx="2.5" fill="#151b2e"/><rect x="161.1" y="213.8" width="14" height="14" rx="2.5" fill="#151b2e"/><rect x="178.4" y="110.0" width="14" height="14" rx="2.5" fill="#151b2e"/><rect x="178.4" y="127.3" width="14" height="14" rx="2.5" fill="#151b2e"/><rect x="178.4" y="144.6" width="14" height="14" rx="2.5" fill="#2f2a6e"/><rect x="178.4" y="161.9" width="14" height="14" rx="2.5" fill="#151b2e"/><rect x="178.4" y="179.2" width="14" height="14" rx="2.5" fill="#151b2e"/><rect x="178.4" y="196.5" width="14" height="14" rx="2.5" fill="#151b2e"/><rect x="178.4" y="213.8" width="14" height="14" rx="2.5" fill="#151b2e"/><rect x="195.7" y="110.0" width="14" height="14" rx="2.5" fill="#2f2a6e"/><rect x="195.7" y="127.3" width="14" height="14" rx="2.5" fill="#151b2e"/><rect x="195.7" y="144.6" width="14" height="14" rx="2.5" fill="#151b2e"/><rect x="195.7" y="161.9" width="14" height="14" rx="2.5" fill="#151b2e"/><rect x="195.7" y="179.2" width="14" height="14" rx="2.5" fill="#151b2e"/><rect x="195.7" y="196.5" width="14" height="14" rx="2.5" fill="#2f2a6e"/><rect x="195.7" y="213.8" width="14" height="14" rx="2.5" fill="#151b2e"/><rect x="213.0" y="110.0" width="14" height="14" rx="2.5" fill="#151b2e"/><rect x="213.0" y="127.3" width="14" height="14" rx="2.5" fill="#151b2e"/><rect x="213.0" y="144.6" width="14" height="14" rx="2.5" fill="#151b2e"/><rect x="213.0" y="161.9" width="14" height="14" rx="2.5" fill="#151b2e"/><rect x="213.0" y="179.2" width="14" height="14" rx="2.5" fill="#151b2e"/><rect x="213.0" y="196.5" width="14" height="14" rx="2.5" fill="#151b2e"/><rect x="213.0" y="213.8" width="14" height="14" rx="2.5" fill="#151b2e"/><rect x="230.3" y="110.0" width="14" height="14" rx="2.5" fill="#151b2e"/><rect x="230.3" y="127.3" width="14" height="14" rx="2.5" fill="#151b2e"/><rect x="230.3" y="144.6" width="14" height="14" rx="2.5" fill="#151b2e"/><rect x="230.3" y="161.9" width="14" height="14" rx="2.5" fill="#151b2e"/><rect x="230.3" y="179.2" width="14" height="14" rx="2.5" fill="#151b2e"/><rect x="230.3" y="196.5" width="14" height="14" rx="2.5" fill="#2f2a6e"/><rect x="230.3" y="213.8" width="14" height="14" rx="2.5" fill="#151b2e"/><rect x="247.6" y="110.0" width="14" height="14" rx="2.5" fill="#151b2e"/><rect x="247.6" y="127.3" width="14" height="14" rx="2.5" fill="#151b2e"/><rect x="247.6" y="144.6" width="14" height="14" rx="2.5" fill="#151b2e"/><rect x="247.6" y="161.9" width="14" height="14" rx="2.5" fill="#151b2e"/><rect x="247.6" y="179.2" width="14" height="14" rx="2.5" fill="#151b2e"/><rect x="247.6" y="196.5" width="14" height="14" rx="2.5" fill="#151b2e"/><rect x="247.6" y="213.8" width="14" height="14" rx="2.5" fill="#151b2e"/><rect x="264.9" y="110.0" width="14" height="14" rx="2.5" fill="#151b2e"/><rect x="264.9" y="127.3" width="14" height="14" rx="2.5" fill="#151b2e"/><rect x="264.9" y="144.6" width="14" height="14" rx="2.5" fill="#151b2e"/><rect x="264.9" y="161.9" width="14" height="14" rx="2.5" fill="#151b2e"/><rect x="264.9" y="179.2" width="14" height="14" rx="2.5" fill="#151b2e"/><rect x="264.9" y="196.5" width="14" height="14" rx="2.5" fill="#151b2e"/><rect x="264.9" y="213.8" width="14" height="14" rx="2.5" fill="#151b2e"/><rect x="282.2" y="110.0" width="14" height="14" rx="2.5" fill="#151b2e"/><rect x="282.2" y="127.3" width="14" height="14" rx="2.5" fill="#151b2e"/><rect x="282.2" y="144.6" width="14" height="14" rx="2.5" fill="#151b2e"/><rect x="282.2" y="161.9" width="14" height="14" rx="2.5" fill="#151b2e"/><rect x="282.2" y="179.2" width="14" height="14" rx="2.5" fill="#151b2e"/><rect x="282.2" y="196.5" width="14" height="14" rx="2.5" fill="#151b2e"/><rect x="282.2" y="213.8" width="14" height="14" rx="2.5" fill="#151b2e"/><rect x="299.5" y="110.0" width="14" height="14" rx="2.5" fill="#151b2e"/><rect x="299.5" y="127.3" width="14" height="14" rx="2.5" fill="#151b2e"/><rect x="299.5" y="144.6" width="14" height="14" rx="2.5" fill="#151b2e"/><rect x="299.5" y="161.9" width="14" height="14" rx="2.5" fill="#151b2e"/><rect x="299.5" y="179.2" width="14" height="14" rx="2.5" fill="#151b2e"/><rect x="299.5" y="196.5" width="14" height="14" rx="2.5" fill="#151b2e"/><rect x="299.5" y="213.8" width="14" height="14" rx="2.5" fill="#151b2e"/><rect x="316.8" y="110.0" width="14" height="14" rx="2.5" fill="#151b2e"/><rect x="316.8" y="127.3" width="14" height="14" rx="2.5" fill="#151b2e"/><rect x="316.8" y="144.6" width="14" height="14" rx="2.5" fill="#151b2e"/><rect x="316.8" y="161.9" width="14" height="14" rx="2.5" fill="#151b2e"/><rect x="316.8" y="179.2" width="14" height="14" rx="2.5" fill="#151b2e"/><rect x="316.8" y="196.5" width="14" height="14" rx="2.5" fill="#151b2e"/><rect x="316.8" y="213.8" width="14" height="14" rx="2.5" fill="#151b2e"/><rect x="334.1" y="110.0" width="14" height="14" rx="2.5" fill="#151b2e"/><rect x="334.1" y="127.3" width="14" height="14" rx="2.5" fill="#151b2e"/><rect x="334.1" y="144.6" width="14" height="14" rx="2.5" fill="#151b2e"/><rect x="334.1" y="161.9" width="14" height="14" rx="2.5" fill="#151b2e"/><rect x="334.1" y="179.2" width="14" height="14" rx="2.5" fill="#151b2e"/><rect x="334.1" y="196.5" width="14" height="14" rx="2.5" fill="#151b2e"/><rect x="334.1" y="213.8" width="14" height="14" rx="2.5" fill="#151b2e"/><rect x="351.4" y="110.0" width="14" height="14" rx="2.5" fill="#151b2e"/><rect x="351.4" y="127.3" width="14" height="14" rx="2.5" fill="#151b2e"/><rect x="351.4" y="144.6" width="14" height="14" rx="2.5" fill="#151b2e"/><rect x="351.4" y="161.9" width="14" height="14" rx="2.5" fill="#151b2e"/><rect x="351.4" y="179.2" width="14" height="14" rx="2.5" fill="#151b2e"/><rect x="351.4" y="196.5" width="14" height="14" rx="2.5" fill="#151b2e"/><rect x="351.4" y="213.8" width="14" height="14" rx="2.5" fill="#4f3fb0"/><rect x="368.7" y="110.0" width="14" height="14" rx="2.5" fill="#151b2e"/><rect x="368.7" y="127.3" width="14" height="14" rx="2.5" fill="#151b2e"/><rect x="368.7" y="144.6" width="14" height="14" rx="2.5" fill="#151b2e"/><rect x="368.7" y="161.9" width="14" height="14" rx="2.5" fill="#151b2e"/><rect x="368.7" y="179.2" width="14" height="14" rx="2.5" fill="#151b2e"/><rect x="368.7" y="196.5" width="14" height="14" rx="2.5" fill="#151b2e"/><rect x="368.7" y="213.8" width="14" height="14" rx="2.5" fill="#151b2e"/><rect x="386.0" y="110.0" width="14" height="14" rx="2.5" fill="#151b2e"/><rect x="386.0" y="127.3" width="14" height="14" rx="2.5" fill="#2f2a6e"/><rect x="386.0" y="144.6" width="14" height="14" rx="2.5" fill="#2f2a6e"/><rect x="386.0" y="161.9" width="14" height="14" rx="2.5" fill="#151b2e"/><rect x="386.0" y="179.2" width="14" height="14" rx="2.5" fill="#151b2e"/><rect x="386.0" y="196.5" width="14" height="14" rx="2.5" fill="#151b2e"/><rect x="386.0" y="213.8" width="14" height="14" rx="2.5" fill="#151b2e"/><rect x="403.3" y="110.0" width="14" height="14" rx="2.5" fill="#151b2e"/><rect x="403.3" y="127.3" width="14" height="14" rx="2.5" fill="#151b2e"/><rect x="403.3" y="144.6" width="14" height="14" rx="2.5" fill="#151b2e"/><rect x="403.3" y="161.9" width="14" height="14" rx="2.5" fill="#151b2e"/><rect x="403.3" y="179.2" width="14" height="14" rx="2.5" fill="#151b2e"/><rect x="403.3" y="196.5" width="14" height="14" rx="2.5" fill="#151b2e"/><rect x="403.3" y="213.8" width="14" height="14" rx="2.5" fill="#151b2e"/><rect x="420.6" y="110.0" width="14" height="14" rx="2.5" fill="#151b2e"/><rect x="420.6" y="127.3" width="14" height="14" rx="2.5" fill="#151b2e"/><rect x="420.6" y="144.6" width="14" height="14" rx="2.5" fill="#151b2e"/><rect x="420.6" y="161.9" width="14" height="14" rx="2.5" fill="#151b2e"/><rect x="420.6" y="179.2" width="14" height="14" rx="2.5" fill="#151b2e"/><rect x="420.6" y="196.5" width="14" height="14" rx="2.5" fill="#151b2e"/><rect x="420.6" y="213.8" width="14" height="14" rx="2.5" fill="#151b2e"/><rect x="437.9" y="110.0" width="14" height="14" rx="2.5" fill="#151b2e"/><rect x="437.9" y="127.3" width="14" height="14" rx="2.5" fill="#151b2e"/><rect x="437.9" y="144.6" width="14" height="14" rx="2.5" fill="#151b2e"/><rect x="437.9" y="161.9" width="14" height="14" rx="2.5" fill="#151b2e"/><rect x="437.9" y="179.2" width="14" height="14" rx="2.5" fill="#151b2e"/><rect x="437.9" y="196.5" width="14" height="14" rx="2.5" fill="#151b2e"/><rect x="437.9" y="213.8" width="14" height="14" rx="2.5" fill="#151b2e"/><rect x="455.2" y="110.0" width="14" height="14" rx="2.5" fill="#151b2e"/><rect x="455.2" y="127.3" width="14" height="14" rx="2.5" fill="#151b2e"/><rect x="455.2" y="144.6" width="14" height="14" rx="2.5" fill="#151b2e"/><rect x="455.2" y="161.9" width="14" height="14" rx="2.5" fill="#151b2e"/><rect x="455.2" y="179.2" width="14" height="14" rx="2.5" fill="#151b2e"/><rect x="455.2" y="196.5" width="14" height="14" rx="2.5" fill="#151b2e"/><rect x="455.2" y="213.8" width="14" height="14" rx="2.5" fill="#151b2e"/><rect x="472.5" y="110.0" width="14" height="14" rx="2.5" fill="#151b2e"/><rect x="472.5" y="127.3" width="14" height="14" rx="2.5" fill="#151b2e"/><rect x="472.5" y="144.6" width="14" height="14" rx="2.5" fill="#151b2e"/><rect x="472.5" y="161.9" width="14" height="14" rx="2.5" fill="#151b2e"/><rect x="472.5" y="179.2" width="14" height="14" rx="2.5" fill="#2f2a6e"/><rect x="472.5" y="196.5" width="14" height="14" rx="2.5" fill="#151b2e"/><rect x="472.5" y="213.8" width="14" height="14" rx="2.5" fill="#151b2e"/><rect x="489.8" y="110.0" width="14" height="14" rx="2.5" fill="#151b2e"/><rect x="489.8" y="127.3" width="14" height="14" rx="2.5" fill="#151b2e"/><rect x="489.8" y="144.6" width="14" height="14" rx="2.5" fill="#151b2e"/><rect x="489.8" y="161.9" width="14" height="14" rx="2.5" fill="#151b2e"/><rect x="489.8" y="179.2" width="14" height="14" rx="2.5" fill="#151b2e"/><rect x="489.8" y="196.5" width="14" height="14" rx="2.5" fill="#151b2e"/><rect x="489.8" y="213.8" width="14" height="14" rx="2.5" fill="#151b2e"/><rect x="507.1" y="110.0" width="14" height="14" rx="2.5" fill="#151b2e"/><rect x="507.1" y="127.3" width="14" height="14" rx="2.5" fill="#151b2e"/><rect x="507.1" y="144.6" width="14" height="14" rx="2.5" fill="#151b2e"/><rect x="507.1" y="161.9" width="14" height="14" rx="2.5" fill="#151b2e"/><rect x="507.1" y="179.2" width="14" height="14" rx="2.5" fill="#151b2e"/><rect x="507.1" y="196.5" width="14" height="14" rx="2.5" fill="#151b2e"/><rect x="507.1" y="213.8" width="14" height="14" rx="2.5" fill="#151b2e"/><rect x="524.4" y="110.0" width="14" height="14" rx="2.5" fill="#151b2e"/><rect x="524.4" y="127.3" width="14" height="14" rx="2.5" fill="#151b2e"/><rect x="524.4" y="144.6" width="14" height="14" rx="2.5" fill="#151b2e"/><rect x="524.4" y="161.9" width="14" height="14" rx="2.5" fill="#151b2e"/><rect x="524.4" y="179.2" width="14" height="14" rx="2.5" fill="#151b2e"/><rect x="524.4" y="196.5" width="14" height="14" rx="2.5" fill="#151b2e"/><rect x="524.4" y="213.8" width="14" height="14" rx="2.5" fill="#151b2e"/><rect x="541.7" y="110.0" width="14" height="14" rx="2.5" fill="#151b2e"/><rect x="541.7" y="127.3" width="14" height="14" rx="2.5" fill="#151b2e"/><rect x="541.7" y="144.6" width="14" height="14" rx="2.5" fill="#151b2e"/><rect x="541.7" y="161.9" width="14" height="14" rx="2.5" fill="#151b2e"/><rect x="541.7" y="179.2" width="14" height="14" rx="2.5" fill="#151b2e"/><rect x="541.7" y="196.5" width="14" height="14" rx="2.5" fill="#151b2e"/><rect x="541.7" y="213.8" width="14" height="14" rx="2.5" fill="#2f2a6e"/><rect x="559.0" y="110.0" width="14" height="14" rx="2.5" fill="#4f3fb0"/><rect x="559.0" y="127.3" width="14" height="14" rx="2.5" fill="#2f2a6e"/><rect x="559.0" y="144.6" width="14" height="14" rx="2.5" fill="#2f2a6e"/><rect x="559.0" y="161.9" width="14" height="14" rx="2.5" fill="#151b2e"/><rect x="559.0" y="179.2" width="14" height="14" rx="2.5" fill="#151b2e"/><rect x="559.0" y="196.5" width="14" height="14" rx="2.5" fill="#4f3fb0"/><rect x="559.0" y="213.8" width="14" height="14" rx="2.5" fill="#2f2a6e"/><rect x="576.3" y="110.0" width="14" height="14" rx="2.5" fill="#151b2e"/><rect x="576.3" y="127.3" width="14" height="14" rx="2.5" fill="#151b2e"/><rect x="576.3" y="144.6" width="14" height="14" rx="2.5" fill="#2f2a6e"/><rect x="576.3" y="161.9" width="14" height="14" rx="2.5" fill="#2f2a6e"/><rect x="576.3" y="179.2" width="14" height="14" rx="2.5" fill="#2f2a6e"/><rect x="576.3" y="196.5" width="14" height="14" rx="2.5" fill="#22d3ee"/><rect x="576.3" y="213.8" width="14" height="14" rx="2.5" fill="#151b2e"/><rect x="593.6" y="110.0" width="14" height="14" rx="2.5" fill="#151b2e"/><rect x="593.6" y="127.3" width="14" height="14" rx="2.5" fill="#151b2e"/><rect x="593.6" y="144.6" width="14" height="14" rx="2.5" fill="#151b2e"/><rect x="593.6" y="161.9" width="14" height="14" rx="2.5" fill="#2f2a6e"/><rect x="593.6" y="179.2" width="14" height="14" rx="2.5" fill="#151b2e"/><rect x="593.6" y="196.5" width="14" height="14" rx="2.5" fill="#2f2a6e"/><rect x="593.6" y="213.8" width="14" height="14" rx="2.5" fill="#151b2e"/><rect x="610.9" y="110.0" width="14" height="14" rx="2.5" fill="#151b2e"/><rect x="610.9" y="127.3" width="14" height="14" rx="2.5" fill="#151b2e"/><rect x="610.9" y="144.6" width="14" height="14" rx="2.5" fill="#151b2e"/><rect x="610.9" y="161.9" width="14" height="14" rx="2.5" fill="#151b2e"/><rect x="610.9" y="179.2" width="14" height="14" rx="2.5" fill="#151b2e"/><rect x="610.9" y="196.5" width="14" height="14" rx="2.5" fill="#151b2e"/><rect x="610.9" y="213.8" width="14" height="14" rx="2.5" fill="#151b2e"/><rect x="628.2" y="110.0" width="14" height="14" rx="2.5" fill="#151b2e"/><rect x="628.2" y="127.3" width="14" height="14" rx="2.5" fill="#151b2e"/><rect x="628.2" y="144.6" width="14" height="14" rx="2.5" fill="#151b2e"/><rect x="628.2" y="161.9" width="14" height="14" rx="2.5" fill="#151b2e"/><rect x="628.2" y="179.2" width="14" height="14" rx="2.5" fill="#151b2e"/><rect x="628.2" y="196.5" width="14" height="14" rx="2.5" fill="#151b2e"/><rect x="628.2" y="213.8" width="14" height="14" rx="2.5" fill="#151b2e"/><rect x="645.5" y="110.0" width="14" height="14" rx="2.5" fill="#151b2e"/><rect x="645.5" y="127.3" width="14" height="14" rx="2.5" fill="#151b2e"/><rect x="645.5" y="144.6" width="14" height="14" rx="2.5" fill="#151b2e"/><rect x="645.5" y="161.9" width="14" height="14" rx="2.5" fill="#151b2e"/><rect x="645.5" y="179.2" width="14" height="14" rx="2.5" fill="#151b2e"/><rect x="645.5" y="196.5" width="14" height="14" rx="2.5" fill="#151b2e"/><rect x="645.5" y="213.8" width="14" height="14" rx="2.5" fill="#151b2e"/><rect x="662.8" y="110.0" width="14" height="14" rx="2.5" fill="#151b2e"/><rect x="662.8" y="127.3" width="14" height="14" rx="2.5" fill="#151b2e"/><rect x="662.8" y="144.6" width="14" height="14" rx="2.5" fill="#151b2e"/><rect x="662.8" y="161.9" width="14" height="14" rx="2.5" fill="#151b2e"/><rect x="662.8" y="179.2" width="14" height="14" rx="2.5" fill="#151b2e"/><rect x="662.8" y="196.5" width="14" height="14" rx="2.5" fill="#151b2e"/><rect x="662.8" y="213.8" width="14" height="14" rx="2.5" fill="#151b2e"/><rect x="680.1" y="110.0" width="14" height="14" rx="2.5" fill="#151b2e"/><rect x="680.1" y="127.3" width="14" height="14" rx="2.5" fill="#151b2e"/><rect x="680.1" y="144.6" width="14" height="14" rx="2.5" fill="#151b2e"/><rect x="680.1" y="161.9" width="14" height="14" rx="2.5" fill="#151b2e"/><rect x="680.1" y="179.2" width="14" height="14" rx="2.5" fill="#151b2e"/><rect x="680.1" y="196.5" width="14" height="14" rx="2.5" fill="#151b2e"/><rect x="680.1" y="213.8" width="14" height="14" rx="2.5" fill="#151b2e"/><rect x="697.4" y="110.0" width="14" height="14" rx="2.5" fill="#7c5cff"/><rect x="697.4" y="127.3" width="14" height="14" rx="2.5" fill="#2f2a6e"/><rect x="697.4" y="144.6" width="14" height="14" rx="2.5" fill="#151b2e"/><rect x="697.4" y="161.9" width="14" height="14" rx="2.5" fill="#151b2e"/><rect x="697.4" y="179.2" width="14" height="14" rx="2.5" fill="#151b2e"/><rect x="697.4" y="196.5" width="14" height="14" rx="2.5" fill="#151b2e"/><rect x="697.4" y="213.8" width="14" height="14" rx="2.5" fill="#151b2e"/><rect x="714.7" y="110.0" width="14" height="14" rx="2.5" fill="#151b2e"/><rect x="714.7" y="127.3" width="14" height="14" rx="2.5" fill="#151b2e"/><rect x="714.7" y="144.6" width="14" height="14" rx="2.5" fill="#151b2e"/><rect x="714.7" y="161.9" width="14" height="14" rx="2.5" fill="#151b2e"/><rect x="714.7" y="179.2" width="14" height="14" rx="2.5" fill="#151b2e"/><rect x="714.7" y="196.5" width="14" height="14" rx="2.5" fill="#151b2e"/><rect x="714.7" y="213.8" width="14" height="14" rx="2.5" fill="#151b2e"/><rect x="732.0" y="110.0" width="14" height="14" rx="2.5" fill="#2f2a6e"/><rect x="732.0" y="127.3" width="14" height="14" rx="2.5" fill="#151b2e"/><rect x="732.0" y="144.6" width="14" height="14" rx="2.5" fill="#2f2a6e"/><rect x="732.0" y="161.9" width="14" height="14" rx="2.5" fill="#2f2a6e"/><rect x="732.0" y="179.2" width="14" height="14" rx="2.5" fill="#151b2e"/><rect x="732.0" y="196.5" width="14" height="14" rx="2.5" fill="#151b2e"/><rect x="732.0" y="213.8" width="14" height="14" rx="2.5" fill="#4f3fb0"/><rect x="749.3" y="110.0" width="14" height="14" rx="2.5" fill="#4f3fb0"/><rect x="749.3" y="127.3" width="14" height="14" rx="2.5" fill="#151b2e"/><rect x="749.3" y="144.6" width="14" height="14" rx="2.5" fill="#151b2e"/><rect x="749.3" y="161.9" width="14" height="14" rx="2.5" fill="#2f2a6e"/><rect x="749.3" y="179.2" width="14" height="14" rx="2.5" fill="#151b2e"/><rect x="749.3" y="196.5" width="14" height="14" rx="2.5" fill="#151b2e"/><rect x="749.3" y="213.8" width="14" height="14" rx="2.5" fill="#151b2e"/><rect x="766.6" y="110.0" width="14" height="14" rx="2.5" fill="#151b2e"/><rect x="766.6" y="127.3" width="14" height="14" rx="2.5" fill="#2f2a6e"/><rect x="766.6" y="144.6" width="14" height="14" rx="2.5" fill="#151b2e"/><rect x="766.6" y="161.9" width="14" height="14" rx="2.5" fill="#2f2a6e"/><rect x="766.6" y="179.2" width="14" height="14" rx="2.5" fill="#151b2e"/><rect x="766.6" y="196.5" width="14" height="14" rx="2.5" fill="#151b2e"/><rect x="766.6" y="213.8" width="14" height="14" rx="2.5" fill="#151b2e"/><rect x="783.9" y="110.0" width="14" height="14" rx="2.5" fill="#151b2e"/><rect x="783.9" y="127.3" width="14" height="14" rx="2.5" fill="#151b2e"/><rect x="783.9" y="144.6" width="14" height="14" rx="2.5" fill="#151b2e"/><rect x="783.9" y="161.9" width="14" height="14" rx="2.5" fill="#151b2e"/><rect x="783.9" y="179.2" width="14" height="14" rx="2.5" fill="#151b2e"/><rect x="783.9" y="196.5" width="14" height="14" rx="2.5" fill="#151b2e"/><rect x="783.9" y="213.8" width="14" height="14" rx="2.5" fill="#151b2e"/><rect x="801.2" y="110.0" width="14" height="14" rx="2.5" fill="#151b2e"/><rect x="801.2" y="127.3" width="14" height="14" rx="2.5" fill="#151b2e"/><rect x="801.2" y="144.6" width="14" height="14" rx="2.5" fill="#151b2e"/><rect x="801.2" y="161.9" width="14" height="14" rx="2.5" fill="#151b2e"/><rect x="801.2" y="179.2" width="14" height="14" rx="2.5" fill="#151b2e"/><rect x="801.2" y="196.5" width="14" height="14" rx="2.5" fill="#151b2e"/><rect x="801.2" y="213.8" width="14" height="14" rx="2.5" fill="#151b2e"/><rect x="818.5" y="110.0" width="14" height="14" rx="2.5" fill="#151b2e"/><rect x="818.5" y="127.3" width="14" height="14" rx="2.5" fill="#151b2e"/><rect x="818.5" y="144.6" width="14" height="14" rx="2.5" fill="#151b2e"/><rect x="818.5" y="161.9" width="14" height="14" rx="2.5" fill="#151b2e"/><rect x="818.5" y="179.2" width="14" height="14" rx="2.5" fill="#151b2e"/><rect x="818.5" y="196.5" width="14" height="14" rx="2.5" fill="#151b2e"/><rect x="818.5" y="213.8" width="14" height="14" rx="2.5" fill="#151b2e"/><rect x="835.8" y="110.0" width="14" height="14" rx="2.5" fill="#151b2e"/><rect x="835.8" y="127.3" width="14" height="14" rx="2.5" fill="#151b2e"/><rect x="835.8" y="144.6" width="14" height="14" rx="2.5" fill="#151b2e"/><rect x="835.8" y="161.9" width="14" height="14" rx="2.5" fill="#151b2e"/><rect x="835.8" y="179.2" width="14" height="14" rx="2.5" fill="#151b2e"/><rect x="835.8" y="196.5" width="14" height="14" rx="2.5" fill="#151b2e"/><rect x="835.8" y="213.8" width="14" height="14" rx="2.5" fill="#151b2e"/><rect x="853.1" y="110.0" width="14" height="14" rx="2.5" fill="#151b2e"/><rect x="853.1" y="127.3" width="14" height="14" rx="2.5" fill="#151b2e"/><rect x="853.1" y="144.6" width="14" height="14" rx="2.5" fill="#151b2e"/><rect x="853.1" y="161.9" width="14" height="14" rx="2.5" fill="#151b2e"/><rect x="853.1" y="179.2" width="14" height="14" rx="2.5" fill="#151b2e"/><rect x="853.1" y="196.5" width="14" height="14" rx="2.5" fill="#151b2e"/><rect x="853.1" y="213.8" width="14" height="14" rx="2.5" fill="#151b2e"/><rect x="870.4" y="110.0" width="14" height="14" rx="2.5" fill="#151b2e"/><rect x="870.4" y="127.3" width="14" height="14" rx="2.5" fill="#151b2e"/><rect x="870.4" y="144.6" width="14" height="14" rx="2.5" fill="#151b2e"/><rect x="870.4" y="161.9" width="14" height="14" rx="2.5" fill="#151b2e"/><rect x="870.4" y="179.2" width="14" height="14" rx="2.5" fill="#151b2e"/><rect x="870.4" y="196.5" width="14" height="14" rx="2.5" fill="#151b2e"/><rect x="870.4" y="213.8" width="14" height="14" rx="2.5" fill="#151b2e"/><rect x="887.7" y="110.0" width="14" height="14" rx="2.5" fill="#151b2e"/><rect x="887.7" y="127.3" width="14" height="14" rx="2.5" fill="#151b2e"/><rect x="887.7" y="144.6" width="14" height="14" rx="2.5" fill="#151b2e"/><rect x="887.7" y="161.9" width="14" height="14" rx="2.5" fill="#151b2e"/><rect x="887.7" y="179.2" width="14" height="14" rx="2.5" fill="#151b2e"/><rect x="887.7" y="196.5" width="14" height="14" rx="2.5" fill="#151b2e"/><rect x="887.7" y="213.8" width="14" height="14" rx="2.5" fill="#151b2e"/><rect x="905.0" y="110.0" width="14" height="14" rx="2.5" fill="#151b2e"/><rect x="905.0" y="127.3" width="14" height="14" rx="2.5" fill="#151b2e"/><rect x="905.0" y="144.6" width="14" height="14" rx="2.5" fill="#151b2e"/><rect x="905.0" y="161.9" width="14" height="14" rx="2.5" fill="#151b2e"/><rect x="905.0" y="179.2" width="14" height="14" rx="2.5" fill="#151b2e"/><rect x="905.0" y="196.5" width="14" height="14" rx="2.5" fill="#151b2e"/><rect x="905.0" y="213.8" width="14" height="14" rx="2.5" fill="#151b2e"/><rect x="922.3" y="110.0" width="14" height="14" rx="2.5" fill="#151b2e"/><rect x="922.3" y="127.3" width="14" height="14" rx="2.5" fill="#151b2e"/><rect x="922.3" y="144.6" width="14" height="14" rx="2.5" fill="#151b2e"/><rect x="922.3" y="161.9" width="14" height="14" rx="2.5" fill="#151b2e"/><rect x="922.3" y="179.2" width="14" height="14" rx="2.5" fill="#151b2e"/><rect x="922.3" y="196.5" width="14" height="14" rx="2.5" fill="#151b2e"/><rect x="922.3" y="213.8" width="14" height="14" rx="2.5" fill="#151b2e"/><rect x="939.6" y="110.0" width="14" height="14" rx="2.5" fill="#151b2e"/><rect x="939.6" y="127.3" width="14" height="14" rx="2.5" fill="#151b2e"/><rect x="939.6" y="144.6" width="14" height="14" rx="2.5" fill="#151b2e"/><rect x="939.6" y="161.9" width="14" height="14" rx="2.5" fill="#151b2e"/><rect x="939.6" y="179.2" width="14" height="14" rx="2.5" fill="#151b2e"/><rect x="939.6" y="196.5" width="14" height="14" rx="2.5" fill="#2f2a6e"/><g class="beam"><rect x="-50" y="104" width="50" height="129.10000000000002" fill="url(#bg)"/><rect x="-1.5" y="104" width="1.5" height="129.10000000000002" fill="#22d3ee" fill-opacity=".8"/></g></svg>