<svg xmlns="http://www.w3.org/2000/svg" width="1000" height="372" viewBox="0 0 1000 372" role="img" aria-label="Skill set">
<defs><pattern id="scan" width="4" height="4" patternUnits="userSpaceOnUse"><rect width="4" height="2" fill="#000" fill-opacity="0.22"/></pattern>
<linearGradient id="beam" x1="0" x2="1"><stop offset="0" stop-color="#7c5cff" stop-opacity="0"/><stop offset="1" stop-color="#22d3ee" stop-opacity="0.22"/></linearGradient></defs>
<style>
.mono{font-family:'JetBrains Mono','Fira Code','Courier New',monospace}
.dim{fill:#5b6480}.white{fill:#e6e9f2}.chip{fill:#c3c9db}
.boot{opacity:0;animation:boot .4s steps(2) forwards}
@keyframes boot{0%{opacity:0;transform:translateX(-8px)}50%{opacity:1}75%{opacity:.35}100%{opacity:1;transform:none}}
.hit{opacity:0;animation:hit 5s linear infinite}
@keyframes hit{0%{opacity:.3}12%{opacity:.12}25%,100%{opacity:0}}

.fire{animation:fire 2.4s ease-out infinite}@keyframes fire{0%,100%{opacity:.35}8%{opacity:1}}
.beam{animation:beam 5s linear infinite}
@keyframes beam{0%{transform:translateX(170px)}80%{transform:translateX(960px)}80.01%,100%{transform:translateX(1080px)}}
</style>
<rect width="1000" height="372" rx="12" fill="#0b0f1a"/>
<rect x="1" y="1" width="998" height="370" rx="12" fill="none" stroke="#7c5cff" stroke-opacity="0.35"/>
<g class="boot" style="animation-delay:.1s">
<text x="40" y="38" class="mono white" font-size="18" font-weight="700" letter-spacing="2">SKILL SET</text>
<text x="960" y="38" class="mono dim" font-size="11" text-anchor="end">&gt; SCANNING STACK...</text>
<line x1="40" y1="50" x2="960" y2="50" stroke="#7c5cff" stroke-opacity="0.3"/></g>
<g class="boot" style="animation-delay:0.30s">
<rect x="40" y="64" width="4" height="18" fill="#7c5cff"/>
<text x="54" y="78" class="mono white" font-size="13" font-weight="700" letter-spacing="1.5">ML / DL</text>
<g><rect x="230.0" y="61" width="67.6" height="24" rx="3" fill="#121a30" stroke="#7c5cff" stroke-opacity="0.35"/><rect x="230.0" y="61" width="67.6" height="24" rx="3" fill="#22d3ee" class="hit" style="animation-delay:0.19s"/><text x="241.0" y="77" class="mono chip" font-size="12.5">Python</text></g>
<g><rect x="305.6" y="61" width="75.2" height="24" rx="3" fill="#121a30" stroke="#7c5cff" stroke-opacity="0.35"/><rect x="305.6" y="61" width="75.2" height="24" rx="3" fill="#22d3ee" class="hit" style="animation-delay:0.62s"/><text x="316.6" y="77" class="mono chip" font-size="12.5">PyTorch</text></g>
<g><rect x="388.8" y="61" width="67.6" height="24" rx="3" fill="#121a30" stroke="#7c5cff" stroke-opacity="0.35"/><rect x="388.8" y="61" width="67.6" height="24" rx="3" fill="#22d3ee" class="hit" style="animation-delay:1.06s"/><text x="399.8" y="77" class="mono chip" font-size="12.5">OpenCV</text></g>
<g><rect x="464.4" y="61" width="143.6" height="24" rx="3" fill="#121a30" stroke="#7c5cff" stroke-opacity="0.35"/><rect x="464.4" y="61" width="143.6" height="24" rx="3" fill="#22d3ee" class="hit" style="animation-delay:1.68s"/><text x="475.4" y="77" class="mono chip" font-size="12.5">Object Detection</text></g>
<g><rect x="616.0" y="61" width="113.2" height="24" rx="3" fill="#121a30" stroke="#7c5cff" stroke-opacity="0.35"/><rect x="616.0" y="61" width="113.2" height="24" rx="3" fill="#22d3ee" class="hit" style="animation-delay:2.43s"/><text x="627.0" y="77" class="mono chip" font-size="12.5">Segmentation</text></g>
</g>
<g class="boot" style="animation-delay:0.60s">
<rect x="40" y="110" width="4" height="18" fill="#7c5cff"/>
<text x="54" y="124" class="mono white" font-size="13" font-weight="700" letter-spacing="1.5">LLMs &amp; AGENTS</text>
<g><rect x="230.0" y="107" width="105.6" height="24" rx="3" fill="#121a30" stroke="#7c5cff" stroke-opacity="0.35"/><rect x="230.0" y="107" width="105.6" height="24" rx="3" fill="#22d3ee" class="hit" style="animation-delay:0.29s"/><text x="241.0" y="123" class="mono chip" font-size="12.5">Agentic RAG</text></g>
<g><rect x="343.6" y="107" width="166.4" height="24" rx="3" fill="#121a30" stroke="#7c5cff" stroke-opacity="0.35"/><rect x="343.6" y="107" width="166.4" height="24" rx="3" fill="#22d3ee" class="hit" style="animation-delay:1.08s"/><text x="354.6" y="123" class="mono chip" font-size="12.5">Multi-Agent Systems</text></g>
<g><rect x="518.0" y="107" width="136.0" height="24" rx="3" fill="#121a30" stroke="#7c5cff" stroke-opacity="0.35"/><rect x="518.0" y="107" width="136.0" height="24" rx="3" fill="#22d3ee" class="hit" style="animation-delay:1.95s"/><text x="529.0" y="123" class="mono chip" font-size="12.5">Code-Gen Agents</text></g>
<g><rect x="662.0" y="107" width="52.4" height="24" rx="3" fill="#121a30" stroke="#7c5cff" stroke-opacity="0.35"/><rect x="662.0" y="107" width="52.4" height="24" rx="3" fill="#22d3ee" class="hit" style="animation-delay:2.51s"/><text x="673.0" y="123" class="mono chip" font-size="12.5">vLLM</text></g>
</g>
<g class="boot" style="animation-delay:0.90s">
<rect x="40" y="156" width="4" height="18" fill="#7c5cff"/>
<text x="54" y="170" class="mono white" font-size="13" font-weight="700" letter-spacing="1.5">WEB</text>
<g><rect x="230.0" y="153" width="60.0" height="24" rx="3" fill="#121a30" stroke="#7c5cff" stroke-opacity="0.35"/><rect x="230.0" y="153" width="60.0" height="24" rx="3" fill="#22d3ee" class="hit" style="animation-delay:0.16s"/><text x="241.0" y="169" class="mono chip" font-size="12.5">React</text></g>
<g><rect x="298.0" y="153" width="75.2" height="24" rx="3" fill="#121a30" stroke="#7c5cff" stroke-opacity="0.35"/><rect x="298.0" y="153" width="75.2" height="24" rx="3" fill="#22d3ee" class="hit" style="animation-delay:0.58s"/><text x="309.0" y="169" class="mono chip" font-size="12.5">Next.js</text></g>
<g><rect x="381.2" y="153" width="75.2" height="24" rx="3" fill="#121a30" stroke="#7c5cff" stroke-opacity="0.35"/><rect x="381.2" y="153" width="75.2" height="24" rx="3" fill="#22d3ee" class="hit" style="animation-delay:1.03s"/><text x="392.2" y="169" class="mono chip" font-size="12.5">Node.js</text></g>
<g><rect x="464.4" y="153" width="75.2" height="24" rx="3" fill="#121a30" stroke="#7c5cff" stroke-opacity="0.35"/><rect x="464.4" y="153" width="75.2" height="24" rx="3" fill="#22d3ee" class="hit" style="animation-delay:1.49s"/><text x="475.4" y="169" class="mono chip" font-size="12.5">FastAPI</text></g>
<g><rect x="547.6" y="153" width="98.0" height="24" rx="3" fill="#121a30" stroke="#7c5cff" stroke-opacity="0.35"/><rect x="547.6" y="153" width="98.0" height="24" rx="3" fill="#22d3ee" class="hit" style="animation-delay:2.01s"/><text x="558.6" y="169" class="mono chip" font-size="12.5">PostgreSQL</text></g>
</g>
<g class="boot" style="animation-delay:1.20s">
<rect x="40" y="202" width="4" height="18" fill="#7c5cff"/>
<text x="54" y="216" class="mono white" font-size="13" font-weight="700" letter-spacing="1.5">EDGE &amp; EMBEDDED</text>
<g><rect x="230.0" y="199" width="105.6" height="24" rx="3" fill="#121a30" stroke="#7c5cff" stroke-opacity="0.35"/><rect x="230.0" y="199" width="105.6" height="24" rx="3" fill="#22d3ee" class="hit" style="animation-delay:0.29s"/><text x="241.0" y="215" class="mono chip" font-size="12.5">Hailo-8 NPU</text></g>
<g><rect x="343.6" y="199" width="52.4" height="24" rx="3" fill="#121a30" stroke="#7c5cff" stroke-opacity="0.35"/><rect x="343.6" y="199" width="52.4" height="24" rx="3" fill="#22d3ee" class="hit" style="animation-delay:0.77s"/><text x="354.6" y="215" class="mono chip" font-size="12.5">ONNX</text></g>
<g><rect x="404.0" y="199" width="52.4" height="24" rx="3" fill="#121a30" stroke="#7c5cff" stroke-opacity="0.35"/><rect x="404.0" y="199" width="52.4" height="24" rx="3" fill="#22d3ee" class="hit" style="animation-delay:1.10s"/><text x="415.0" y="215" class="mono chip" font-size="12.5">ROS2</text></g>
<g><rect x="464.4" y="199" width="113.2" height="24" rx="3" fill="#121a30" stroke="#7c5cff" stroke-opacity="0.35"/><rect x="464.4" y="199" width="113.2" height="24" rx="3" fill="#22d3ee" class="hit" style="animation-delay:1.59s"/><text x="475.4" y="215" class="mono chip" font-size="12.5">Raspberry Pi</text></g>
<g><rect x="585.6" y="199" width="60.0" height="24" rx="3" fill="#121a30" stroke="#7c5cff" stroke-opacity="0.35"/><rect x="585.6" y="199" width="60.0" height="24" rx="3" fill="#22d3ee" class="hit" style="animation-delay:2.11s"/><text x="596.6" y="215" class="mono chip" font-size="12.5">ESP32</text></g>
</g>
<g class="boot" style="animation-delay:1.50s">
<rect x="40" y="248" width="4" height="18" fill="#7c5cff"/>
<text x="54" y="262" class="mono white" font-size="13" font-weight="700" letter-spacing="1.5">TOOLS</text>
<g><rect x="230.0" y="245" width="67.6" height="24" rx="3" fill="#121a30" stroke="#7c5cff" stroke-opacity="0.35"/><rect x="230.0" y="245" width="67.6" height="24" rx="3" fill="#22d3ee" class="hit" style="animation-delay:0.19s"/><text x="241.0" y="261" class="mono chip" font-size="12.5">Docker</text></g>
<g><rect x="305.6" y="245" width="44.8" height="24" rx="3" fill="#121a30" stroke="#7c5cff" stroke-opacity="0.35"/><rect x="305.6" y="245" width="44.8" height="24" rx="3" fill="#22d3ee" class="hit" style="animation-delay:0.54s"/><text x="316.6" y="261" class="mono chip" font-size="12.5">Git</text></g>
<g><rect x="358.4" y="245" width="60.0" height="24" rx="3" fill="#121a30" stroke="#7c5cff" stroke-opacity="0.35"/><rect x="358.4" y="245" width="60.0" height="24" rx="3" fill="#22d3ee" class="hit" style="animation-delay:0.87s"/><text x="369.4" y="261" class="mono chip" font-size="12.5">Linux</text></g>
</g>
<g class="boot" style="animation-delay:2.00s">
<line x1="40" y1="282" x2="960" y2="282" stroke="#7c5cff" stroke-opacity="0.18" stroke-dasharray="4 4"/>
<text x="40" y="312" class="mono dim" font-size="11.5" letter-spacing="1.5">ARCHITECTURES</text>
<rect x="230.0" y="293" width="83.6" height="28" rx="14" fill="#7c5cff" fill-opacity=".1" stroke="#7c5cff" stroke-opacity=".45"/><circle cx="245.0" cy="307" r="5" fill="none" stroke="#7c5cff" stroke-width="1.5"/><circle cx="245.0" cy="307" r="2.4" fill="#22d3ee" class="fire" style="animation-delay:0.0s"/><text x="258.0" y="311.5" class="mono" font-size="12.5" fill="#c3c9db">YOLOv8</text>
<rect x="323.6" y="293" width="144.4" height="28" rx="14" fill="#7c5cff" fill-opacity=".1" stroke="#7c5cff" stroke-opacity=".45"/><circle cx="338.6" cy="307" r="5" fill="none" stroke="#7c5cff" stroke-width="1.5"/><circle cx="338.6" cy="307" r="2.4" fill="#22d3ee" class="fire" style="animation-delay:0.3s"/><text x="351.6" y="311.5" class="mono" font-size="12.5" fill="#c3c9db">Siamese ResNet</text>
<rect x="478.0" y="293" width="174.8" height="28" rx="14" fill="#7c5cff" fill-opacity=".1" stroke="#7c5cff" stroke-opacity=".45"/><circle cx="493.0" cy="307" r="5" fill="none" stroke="#7c5cff" stroke-width="1.5"/><circle cx="493.0" cy="307" r="2.4" fill="#22d3ee" class="fire" style="animation-delay:0.6s"/><text x="506.0" y="311.5" class="mono" font-size="12.5" fill="#c3c9db">SegFormer (MiT-B4)</text>
<rect x="230.0" y="329" width="76.0" height="28" rx="14" fill="#7c5cff" fill-opacity=".1" stroke="#7c5cff" stroke-opacity=".45"/><circle cx="245.0" cy="343" r="5" fill="none" stroke="#7c5cff" stroke-width="1.5"/><circle cx="245.0" cy="343" r="2.4" fill="#22d3ee" class="fire" style="animation-delay:0.9s"/><text x="258.0" y="347.5" class="mono" font-size="12.5" fill="#c3c9db">U-Net</text>
<rect x="316.0" y="329" width="144.4" height="28" rx="14" fill="#7c5cff" fill-opacity=".1" stroke="#7c5cff" stroke-opacity=".45"/><circle cx="331.0" cy="343" r="5" fill="none" stroke="#7c5cff" stroke-width="1.5"/><circle cx="331.0" cy="343" r="2.4" fill="#22d3ee" class="fire" style="animation-delay:1.2s"/><text x="344.0" y="347.5" class="mono" font-size="12.5" fill="#c3c9db">EfficientNetV2</text>
<rect x="470.4" y="329" width="159.6" height="28" rx="14" fill="#7c5cff" fill-opacity=".1" stroke="#7c5cff" stroke-opacity=".45"/><circle cx="485.4" cy="343" r="5" fill="none" stroke="#7c5cff" stroke-width="1.5"/><circle cx="485.4" cy="343" r="2.4" fill="#22d3ee" class="fire" style="animation-delay:1.5s"/><text x="498.4" y="347.5" class="mono" font-size="12.5" fill="#c3c9db">Swin Transformer</text>
</g>
<g class="beam"><rect x="-60" y="56" width="60" height="302" fill="url(#beam)"/><rect x="-2" y="56" width="2" height="302" fill="#22d3ee" fill-opacity="0.8"/></g>
</svg>